<svg width="82" height="82" viewBox="0 0 82 82" fill="none" xmlns="http://www.w3.org/2000/svg">
<g clip-path="url(#clip0_56_358)">
<path fill-rule="evenodd" clip-rule="evenodd" d="M43.1371 18.764C45.3408 18.9643 47.4776 19.5653 49.4808 20.3666V16.1597C49.4808 15.0245 50.3489 14.1565 51.4841 14.1565H56.4923V13.7558C54.2219 12.4203 53.3538 9.48216 54.6894 7.21178C56.0249 4.94141 58.963 4.1401 61.2334 5.47561C63.5038 6.81113 64.2383 9.68249 62.9696 11.9529C62.5021 12.7542 61.9011 13.3552 61.1666 13.7558V16.8275C61.1666 17.8959 60.2317 18.764 59.1633 18.764H54.0884V23.0376C55.8246 24.3064 57.2936 25.8422 58.5624 27.5116H62.7692V22.4367C62.7692 21.3682 63.7041 20.4334 64.7725 20.4334H67.8442C68.2448 19.6989 68.8458 19.0979 69.5804 18.6972C71.8507 17.3617 74.7889 18.163 76.1244 20.4334C77.3931 22.7038 76.6586 25.5751 74.3882 26.9106C72.1178 28.2462 69.1797 27.4448 67.8442 25.1745V25.1077H67.4435V30.1826C67.4435 31.2511 66.5754 32.1859 65.4403 32.1859H61.2334C62.1015 34.1224 62.6357 36.2592 62.9028 38.4628H72.7188C73.5201 36.9938 75.1227 36.0589 76.8589 36.0589C79.4632 36.0589 81.6 38.1957 81.6 40.8C81.6 43.4043 79.4632 45.5411 76.8589 45.5411C75.1227 45.5411 73.5201 44.6062 72.7188 43.1371H62.9028C62.6357 45.3408 62.1015 47.4776 61.2334 49.4808H65.507C66.5754 49.4808 67.4435 50.3489 67.4435 51.4841V56.4923C67.5771 56.4923 67.8442 56.5591 67.911 56.4255C69.1797 54.1552 72.1178 53.4206 74.3882 54.6894C76.6586 56.0249 77.4599 58.963 76.1244 61.2334C74.8556 63.5038 71.9175 64.2383 69.6471 62.9696C68.9126 62.5021 68.3116 61.9011 67.8442 61.1666H64.7725C63.7041 61.1666 62.836 60.2317 62.836 59.1633V54.0884H58.5624C57.2936 55.8246 55.8246 57.2936 54.0884 58.5624V62.7692H59.1633C60.2317 62.7692 61.1666 63.7041 61.1666 64.7725V67.8442C61.9011 68.2448 62.5021 68.8458 62.9696 69.5804C64.2383 71.8507 63.5038 74.7889 61.2334 76.1244C58.8962 77.3931 56.0249 76.6586 54.6894 74.3882C53.3538 72.1178 54.1552 69.1797 56.4255 67.8442C56.5591 67.7774 56.4923 67.5771 56.4923 67.4435H51.4173C50.3489 67.4435 49.4808 66.5754 49.4808 65.4403V61.2334C47.4776 62.1015 45.3408 62.6357 43.1371 62.9028V72.7188C44.6062 73.5201 45.5411 75.1227 45.5411 76.8589C45.5411 79.4632 43.4043 81.6 40.8 81.6C38.1957 81.6 36.0589 79.4632 36.0589 76.8589C36.0589 75.1227 36.9938 73.5201 38.4628 72.7188V62.9028C36.2592 62.6357 34.1224 62.1015 32.1191 61.2334V65.507C32.1191 66.5754 31.2511 67.4435 30.1826 67.4435H25.1077V67.8442C27.4448 69.1797 28.2462 72.1178 26.9106 74.3882C25.5751 76.6586 22.7038 77.4599 20.4334 76.1244C18.0962 74.8556 17.3617 71.9175 18.6304 69.6471C19.0979 68.9126 19.6989 68.3116 20.4334 67.8442V64.7725C20.4334 63.7041 21.3682 62.836 22.4367 62.836H27.5116V58.5624C25.8422 57.2936 24.3064 55.8246 23.0376 54.0884H18.8308V59.1633C18.8308 60.2317 17.9627 61.1666 16.8275 61.1666H13.7558C13.3552 61.9011 12.7542 62.5021 12.0196 62.9696C9.74926 64.2383 6.81113 63.5038 5.47561 61.2334C4.20687 58.8962 4.94141 56.0249 7.21178 54.6894C9.54894 53.3538 12.4203 54.1552 13.7558 56.4255C13.8226 56.5591 14.0897 56.4923 14.1565 56.4923V51.4173C14.1565 50.3489 15.0913 49.4808 16.1597 49.4808H20.3666C19.5653 47.4776 18.9643 45.3408 18.764 43.1371H8.94795C8.07987 44.6062 6.54403 45.5411 4.74108 45.5411C2.13682 45.5411 0 43.4043 0 40.8C0 38.1957 2.13682 36.0589 4.74108 36.0589C6.54403 36.0589 8.07987 36.9938 8.94795 38.4628H18.764C18.9643 36.2592 19.5653 34.1224 20.3666 32.1191H16.1597C15.0245 32.1191 14.1565 31.2511 14.1565 30.1826V25.1077H13.7558C12.4203 27.4448 9.48216 28.2462 7.21178 26.9106C4.94141 25.5751 4.1401 22.7038 5.47561 20.4334C6.81113 18.0962 9.68249 17.3617 11.9529 18.6304C12.7542 19.0979 13.3552 19.6989 13.7558 20.4334H16.8275C17.8959 20.4334 18.764 21.3682 18.764 22.4367V27.5116H23.0376C24.3064 25.8422 25.8422 24.3064 27.5116 23.0376V18.8308H22.4367C21.3682 18.8308 20.4334 17.9627 20.4334 16.8275V13.7558C17.2949 12.0196 17.1614 7.34534 20.4334 5.47561C22.7038 4.20687 25.5751 4.94141 26.9106 7.21178C28.2462 9.54894 27.4448 12.4203 25.1745 13.7558C25.0409 13.8226 25.1077 14.0897 25.1077 14.1565H30.1826C31.2511 14.1565 32.1859 15.0913 32.1859 16.1597V20.3666C34.1224 19.5653 36.2592 18.9643 38.4628 18.764V8.94795C36.9938 8.07987 36.0589 6.54403 36.0589 4.74108C36.0589 2.13682 38.1957 0 40.8 0C43.4043 0 45.5411 2.13682 45.5411 4.74108C45.5411 6.54403 44.6062 8.07987 43.1371 8.94795V18.764ZM41.6013 24.1728C45.6079 24.3732 49.2137 25.9758 52.0183 28.5133L54.8229 25.6419C51.3506 22.4367 46.6763 20.3666 41.6013 20.1663V24.1728ZM53.0867 29.5817C55.6242 32.3862 57.2268 35.9921 57.4272 39.9987H61.4337C61.2334 34.9237 59.1633 30.2494 55.9581 26.7771L53.0867 29.5817ZM57.4272 41.6013C57.2268 45.6079 55.6242 49.2137 53.0867 52.0183L55.9581 54.8229C59.1633 51.3506 61.2334 46.6763 61.4337 41.6013H57.4272ZM52.0183 53.0867C49.2137 55.6242 45.6079 57.2268 41.6013 57.4272V61.4337C46.6763 61.2334 51.3506 59.1633 54.8229 55.9581L52.0183 53.0867ZM39.9987 57.4272C35.9921 57.2268 32.3862 55.6242 29.5817 53.0867L26.7771 55.9581C30.2494 59.1633 34.9237 61.2334 39.9987 61.4337V57.4272ZM28.5133 52.0183C25.9758 49.2137 24.3732 45.6079 24.1728 41.6013H20.1663C20.3666 46.6763 22.4367 51.3506 25.6419 54.8229L28.5133 52.0183ZM24.1728 39.9987C24.3732 35.9921 25.9758 32.3862 28.5133 29.5817L25.7087 26.7771C22.4367 30.2494 20.3666 34.9237 20.1663 39.9987H24.1728ZM29.5817 28.5133C32.3862 25.9758 35.9921 24.3732 39.9987 24.1728V20.1663C34.9237 20.3666 30.2494 22.4367 26.7771 25.6419L29.5817 28.5133ZM40.8 25.7087C49.147 25.7087 55.8913 32.453 55.8913 40.8C55.8913 49.147 49.147 55.8913 40.8 55.8913C32.453 55.8913 25.7087 49.147 25.7087 40.8C25.7087 32.453 32.453 25.7087 40.8 25.7087ZM41.6013 7.87954V18.6304H39.9987V7.87954C38.5964 7.54566 37.5948 6.27692 37.5948 4.74108C37.5948 3.00491 39.0638 1.53584 40.8 1.53584C42.6029 1.53584 44.0052 3.00491 44.0052 4.74108C44.0052 6.27692 43.0036 7.54566 41.6013 7.87954ZM73.7205 41.6013H62.9696V39.9987H73.7205C74.0543 38.5964 75.3231 37.5948 76.8589 37.5948C78.5951 37.5948 80.0642 39.0638 80.0642 40.8C80.0642 42.6029 78.5951 44.0052 76.8589 44.0052C75.3231 44.0052 74.0543 43.0036 73.7205 41.6013ZM51.0167 21.1011C51.5509 21.3682 52.0851 21.7021 52.5525 21.9692V17.4953C52.5525 17.3617 52.6861 17.2281 52.8196 17.2281H59.1633C59.4304 17.2281 59.6308 17.0278 59.6308 16.8275V12.6874C62.3686 12.0196 62.9696 8.2802 60.4321 6.81113C58.8962 5.94304 56.9597 6.47725 56.0249 8.01309C54.9565 9.81604 56.0249 12.22 58.0281 12.6874V15.492C58.0281 15.5588 57.9614 15.6923 57.8278 15.6923H51.4841C51.217 15.6923 51.0167 15.8926 51.0167 16.1597V21.1011ZM59.6308 29.0475C59.9646 29.5817 60.2318 30.0491 60.4989 30.5833H65.4403C65.7074 30.5833 65.9077 30.383 65.9077 30.1826V23.7722C65.9077 23.6386 65.9745 23.5718 66.108 23.5718H68.8458C68.9126 23.839 69.0462 24.1061 69.1797 24.3732C70.1146 25.909 72.0511 26.4432 73.5869 25.5751C75.1227 24.707 75.657 22.7038 74.7889 21.1679C73.854 19.6321 71.9175 19.0979 70.3817 20.0327C69.5804 20.4334 69.0462 21.1679 68.8458 22.036H64.7725C64.5054 22.036 64.3051 22.2363 64.3051 22.4367V28.8471C64.3051 28.9139 64.2383 29.0475 64.1047 29.0475H59.6308ZM39.9987 73.7205V62.9696H41.6013V73.7205C43.0036 74.0543 44.0052 75.3231 44.0052 76.8589C44.0052 78.5951 42.6029 80.0642 40.8 80.0642C39.0638 80.0642 37.5948 78.5951 37.5948 76.8589C37.5948 75.3231 38.5964 74.0543 39.9987 73.7205ZM60.4989 51.0167C60.2318 51.5509 59.9646 52.0851 59.6308 52.5525H64.1715C64.2383 52.5525 64.3718 52.6861 64.3718 52.8196V59.1633C64.3718 59.4304 64.5722 59.6308 64.7725 59.6308H68.9126C69.1129 60.4321 69.6471 61.1666 70.3817 61.634C71.9175 62.5021 73.9208 61.9679 74.7889 60.4321C75.7237 58.8962 75.1895 56.9597 73.6537 56.0249C71.784 54.9565 69.4468 56.0249 68.9126 58.0281H66.1748C66.0412 58.0281 65.9077 57.9614 65.9077 57.8278V51.4841C65.9077 51.217 65.7074 51.0167 65.507 51.0167H60.4989ZM52.5525 59.6308C52.0851 59.9646 51.5509 60.2318 51.0167 60.4989V65.4403C51.0167 65.7074 51.217 65.9077 51.4173 65.9077H57.8278C57.9614 65.9077 58.0281 65.9745 58.0281 66.108V68.8458C55.9581 69.38 54.9565 71.7172 56.0249 73.5869C56.893 75.1227 58.8962 75.657 60.4321 74.7889C62.9696 73.3198 62.3686 69.5804 59.6308 68.8458V64.7725C59.6308 64.5054 59.4304 64.3051 59.1633 64.3051H52.8196C52.6861 64.3051 52.5525 64.2383 52.5525 64.1047V59.6308ZM7.87954 39.9987H18.6304V41.6013H7.87954C7.54566 43.0036 6.27692 44.0052 4.74108 44.0052C3.00491 44.0052 1.53584 42.6029 1.53584 40.8C1.53584 38.9971 3.00491 37.5948 4.74108 37.5948C6.27692 37.5948 7.54566 38.5964 7.87954 39.9987ZM30.5833 60.4989C30.0491 60.2318 29.5149 59.9646 29.0475 59.6308V64.1715C29.0475 64.2383 28.9139 64.3718 28.8471 64.3718H22.4367C22.1696 64.3718 22.036 64.5722 22.036 64.7725V68.9126C21.1679 69.1129 20.4334 69.6471 20.0327 70.3817C19.0979 71.9175 19.6321 73.9208 21.1679 74.7889C22.7038 75.7237 24.707 75.1895 25.5751 73.6537C26.6435 71.784 25.6419 69.4468 23.5718 68.9126V66.1748C23.5718 66.0412 23.6386 65.9077 23.7722 65.9077H30.1826C30.383 65.9077 30.5833 65.7074 30.5833 65.507V60.4989ZM21.9692 52.5525C21.7021 52.0851 21.3682 51.5509 21.1011 51.0167H16.1597C15.8926 51.0167 15.6923 51.217 15.6923 51.4173V57.8278C15.6923 57.9614 15.6255 58.0281 15.492 58.0281H12.7542C12.22 55.9581 9.88282 54.9565 8.01309 56.0249C6.47725 56.893 5.94304 58.8962 6.81113 60.4321C8.2802 62.9696 12.0196 62.3686 12.7542 59.6308H16.8275C17.0946 59.6308 17.2949 59.4304 17.2949 59.1633V52.8196C17.2949 52.6861 17.3617 52.5525 17.4953 52.5525H21.9692ZM21.1011 30.5833C21.3682 30.0491 21.7021 29.5149 21.9692 29.0475H17.4953C17.3617 29.0475 17.2281 28.9139 17.2281 28.8471V22.4367C17.2281 22.1696 17.0278 22.036 16.8275 22.036H12.6874C12.4871 21.1679 11.9529 20.4334 11.2183 20.0327C9.68249 19.0979 7.67921 19.6321 6.81113 21.1679C5.94304 22.7038 6.47725 24.707 8.01309 25.5751C9.81604 26.6435 12.22 25.6419 12.6874 23.5718H15.492C15.5588 23.5718 15.6923 23.6386 15.6923 23.7722V30.1826C15.6923 30.383 15.8926 30.5833 16.1597 30.5833H21.1011ZM29.0475 21.9692C29.5817 21.7021 30.0491 21.3682 30.5833 21.1011V16.1597C30.5833 15.8926 30.383 15.6923 30.1826 15.6923H23.7722C23.6386 15.6923 23.5718 15.6255 23.5718 15.492V12.7542C25.6419 12.22 26.6435 9.88282 25.5751 8.01309C24.707 6.47725 22.7038 5.94304 21.1679 6.81113C18.6304 8.2802 19.2314 12.0196 22.036 12.7542V16.8275C22.036 17.0946 22.2363 17.2949 22.4367 17.2949H28.8471C28.9139 17.2949 29.0475 17.3617 29.0475 17.4953V21.9692Z" fill="#9747FF"/>
<path d="M47.5208 37.5367C47.991 35.8878 47.9581 34.1875 47.8442 33.0366C47.8279 32.8716 47.7761 32.7121 47.6924 32.569C47.6087 32.4259 47.495 32.3026 47.3592 32.2076C47.2233 32.1126 47.0685 32.048 46.9054 32.0185C46.7423 31.9889 46.5747 31.9949 46.4141 32.0362C44.4219 32.5495 43.203 33.4075 42.506 34.0829C41.1823 33.8137 39.818 33.8137 38.4943 34.0829C37.7971 33.4075 36.5785 32.5495 34.5862 32.0362C34.4257 31.9949 34.2581 31.9889 34.095 32.0185C33.9318 32.048 33.777 32.1126 33.6412 32.2076C33.5053 32.3026 33.3917 32.4259 33.3079 32.569C33.2242 32.7121 33.1724 32.8716 33.1562 33.0366C33.0423 34.1875 33.0094 35.8878 33.4796 37.5367C32.3898 39.2636 32 41.6972 32 43.2863C32 44.1522 32.6641 45.586 34.1499 46.8368C35.322 47.8236 37.375 49 40.5002 49C43.6253 49 45.68 47.8236 46.8504 46.8368C48.3363 45.586 49.0003 44.1522 49.0003 43.2863C49.0003 41.6972 48.6105 39.2636 47.5208 37.5367ZM46.5805 32.6813C46.6475 32.6638 46.7175 32.6612 46.7856 32.6735C46.8538 32.6859 46.9184 32.7131 46.9749 32.7531C47.0322 32.793 47.0802 32.845 47.1155 32.9053C47.1508 32.9656 47.1726 33.0328 47.1795 33.1024C47.1891 33.2 47.1984 33.3082 47.207 33.4248C47.1871 33.4181 47.1675 33.4115 47.1466 33.4058C46.7837 33.3062 46.3885 33.3972 45.9725 33.6715C45.7557 33.8142 45.2908 34.2605 44.5906 34.998C44.5108 35.0827 44.4075 35.1417 44.2939 35.1673C44.1804 35.1928 44.0618 35.1838 43.9534 35.1414C43.6486 35.0215 43.2657 34.8183 43.0323 34.5022C43.6771 33.8959 44.7835 33.1442 46.5805 32.6813ZM34.0254 32.7531C34.1054 32.6964 34.201 32.6659 34.299 32.6657C34.3403 32.6658 34.3813 32.6711 34.4212 32.6813C36.2169 33.1442 37.3232 33.8959 37.9684 34.5022C37.736 34.8183 37.3521 35.0215 37.0473 35.1414C36.9387 35.1841 36.8198 35.1933 36.7059 35.1677C36.592 35.1421 36.4884 35.083 36.4085 34.998C35.7082 34.2605 35.2433 33.8142 35.0265 33.6715C34.6105 33.3972 34.2154 33.3062 33.8524 33.4058C33.8315 33.4115 33.8119 33.4181 33.792 33.4248C33.8006 33.3082 33.8099 33.2 33.8196 33.1024C33.8266 33.0327 33.8486 32.9654 33.8841 32.9051C33.9197 32.8448 33.9679 32.7929 34.0254 32.7531ZM46.4207 46.3271C45.334 47.2425 43.4244 48.3336 40.5002 48.3336C37.5759 48.3336 35.6664 47.2425 34.5796 46.3271C33.3238 45.2696 32.6667 43.9969 32.6667 43.2863C32.6667 41.6324 33.1137 39.2932 34.1121 37.7867C34.3482 37.5077 34.6131 37.2543 34.9023 37.0307C34.973 36.9779 35.0198 36.8991 35.0324 36.8118C35.045 36.7244 35.0224 36.6357 34.9696 36.565C34.9167 36.4943 34.838 36.4476 34.7507 36.4349C34.6633 36.4223 34.5746 36.4449 34.5039 36.4978C34.3314 36.6285 34.1671 36.7699 34.0122 36.9211C33.7967 35.9738 33.7465 35.0245 33.7568 34.2472C33.8234 34.1517 33.9203 34.0815 34.0317 34.048C34.2017 34.0042 34.4133 34.0646 34.6626 34.228C34.8286 34.3365 35.3001 34.7957 35.9283 35.4565C36.0994 35.6382 36.321 35.7644 36.5645 35.8187C36.8081 35.8731 37.0623 35.8531 37.2943 35.7613C37.7313 35.5893 38.2961 35.2759 38.6129 34.7403C39.8599 34.4826 41.1464 34.4826 42.3935 34.7403C42.7102 35.2759 43.275 35.5893 43.712 35.7613C43.944 35.8531 44.1983 35.8731 44.4418 35.8187C44.6853 35.7644 44.907 35.6382 45.078 35.4565C45.7062 34.7954 46.1794 34.3362 46.3437 34.228C46.5917 34.0646 46.8036 34.0042 46.9746 34.048C47.086 34.0816 47.1829 34.1518 47.2495 34.2472C47.2615 35.0242 47.2097 35.9738 46.9942 36.9211C46.8392 36.7699 46.675 36.6285 46.5024 36.4978C46.4674 36.4715 46.4276 36.4524 46.3852 36.4415C46.3428 36.4306 46.2987 36.4282 46.2554 36.4344C46.2121 36.4405 46.1704 36.4552 46.1328 36.4774C46.0951 36.4997 46.0622 36.5292 46.0359 36.5642C46.0096 36.5992 45.9905 36.639 45.9796 36.6814C45.9688 36.7238 45.9663 36.7679 45.9725 36.8112C45.9787 36.8545 45.9933 36.8962 46.0156 36.9339C46.0379 36.9715 46.0673 37.0044 46.1023 37.0307C46.3916 37.2543 46.6565 37.5079 46.8926 37.7871C47.891 39.2932 48.3379 41.6324 48.3379 43.2863C48.3336 43.9969 47.6765 45.2696 46.4207 46.3271Z" fill="#9747FF"/>
</g>
<defs>
<clipPath id="clip0_56_358">
<rect width="81.6" height="81.6" fill="white"/>
</clipPath>
</defs>
</svg>
