<svg width="149" height="40" viewBox="0 0 149 40" fill="none" xmlns="http://www.w3.org/2000/svg">
<circle cx="20.0005" cy="20.0005" r="19.2862" fill="url(#paint0_linear_46_316)" stroke="white" stroke-width="1.42861"/>
<g clip-path="url(#clip0_46_316)">
<path d="M29.3847 16.1018C30.024 13.8597 29.9793 11.5476 29.8244 9.98267C29.8023 9.75832 29.7319 9.54142 29.618 9.34685C29.5042 9.15227 29.3496 8.98462 29.1649 8.8554C28.9802 8.72617 28.7697 8.63844 28.5479 8.5982C28.326 8.55797 28.0981 8.56619 27.8798 8.6223C25.1708 9.32032 23.5134 10.487 22.5657 11.4053C20.7657 11.0393 18.9106 11.0393 17.1107 11.4053C16.1625 10.487 14.5055 9.32032 11.7965 8.6223C11.5782 8.56619 11.3503 8.55797 11.1285 8.5982C10.9067 8.63844 10.6962 8.72617 10.5114 8.8554C10.3267 8.98462 10.1721 9.15227 10.0583 9.34685C9.94445 9.54142 9.87405 9.75832 9.8519 9.98267C9.69704 11.5476 9.65234 13.8597 10.2917 16.1018C8.80985 18.4501 8.27979 21.7591 8.27979 23.92C8.27979 25.0975 9.18278 27.0471 11.2032 28.7479C12.797 30.0897 15.5887 31.6894 19.8382 31.6894C24.0877 31.6894 26.8815 30.0897 28.4731 28.7479C30.4935 27.0471 31.3965 25.0975 31.3965 23.92C31.3965 21.7591 30.8665 18.4501 29.3847 16.1018ZM28.106 9.49956C28.1971 9.47575 28.2923 9.47214 28.385 9.48898C28.4776 9.50583 28.5655 9.54272 28.6424 9.59709C28.7203 9.65148 28.7855 9.7221 28.8335 9.80409C28.8815 9.88608 28.9112 9.97751 28.9205 10.0721C28.9336 10.2048 28.9462 10.352 28.958 10.5105C28.9309 10.5014 28.9043 10.4924 28.8758 10.4847C28.3823 10.3493 27.845 10.473 27.2793 10.8459C26.9845 11.0401 26.3524 11.6469 25.4002 12.6497C25.2917 12.765 25.1512 12.8451 24.9968 12.8799C24.8424 12.9147 24.6811 12.9024 24.5337 12.8447C24.1193 12.6817 23.5987 12.4054 23.2813 11.9756C24.1581 11.1511 25.6625 10.129 28.106 9.49956ZM11.0339 9.59709C11.1427 9.52005 11.2727 9.47857 11.406 9.47834C11.462 9.47851 11.5178 9.48564 11.5721 9.49956C14.0138 10.129 15.5182 11.1511 16.3955 11.9756C16.0794 12.4054 15.5575 12.6817 15.143 12.8447C14.9953 12.9028 14.8336 12.9152 14.6788 12.8805C14.5239 12.8457 14.383 12.7653 14.2743 12.6497C13.3221 11.6469 12.69 11.0401 12.3952 10.8459C11.8295 10.473 11.2922 10.3493 10.7987 10.4847C10.7703 10.4924 10.7436 10.5014 10.7165 10.5105C10.7283 10.352 10.7409 10.2048 10.754 10.0721C10.7635 9.97736 10.7935 9.88584 10.8418 9.80384C10.8901 9.72183 10.9557 9.65129 11.0339 9.59709ZM27.8888 28.0548C26.4111 29.2996 23.8145 30.7832 19.8382 30.7832C15.8618 30.7832 13.2652 29.2996 11.7875 28.0548C10.0799 26.6168 9.1864 24.8862 9.1864 23.92C9.1864 21.6711 9.79411 18.4903 11.1518 16.4418C11.4729 16.0623 11.833 15.7178 12.2263 15.4137C12.3224 15.3419 12.3861 15.2348 12.4032 15.1161C12.4203 14.9973 12.3896 14.8766 12.3178 14.7805C12.2459 14.6844 12.1388 14.6208 12.0201 14.6037C11.9013 14.5865 11.7806 14.6172 11.6845 14.6891C11.4499 14.8669 11.2266 15.0592 11.0159 15.2648C10.7228 13.9766 10.6547 12.6858 10.6687 11.6288C10.7592 11.499 10.8909 11.4035 11.0425 11.3579C11.2737 11.2983 11.5613 11.3805 11.9004 11.6026C12.1261 11.7503 12.7672 12.3747 13.6215 13.2732C13.854 13.5203 14.1554 13.6918 14.4865 13.7657C14.8177 13.8396 15.1634 13.8124 15.4789 13.6877C16.0731 13.4538 16.8411 13.0276 17.2718 12.2993C18.9675 11.9489 20.7169 11.9489 22.4126 12.2993C22.8433 13.0276 23.6113 13.4538 24.2055 13.6877C24.521 13.8124 24.8668 13.8396 25.1979 13.7657C25.5291 13.6918 25.8304 13.5203 26.063 13.2732C26.9172 12.3743 27.5606 11.7498 27.7841 11.6026C28.1214 11.3805 28.4094 11.2983 28.6419 11.3579C28.7935 11.4036 28.9252 11.499 29.0158 11.6288C29.032 12.6853 28.9616 13.9766 28.6686 15.2648C28.4579 15.0592 28.2345 14.8669 27.9999 14.6891C27.9523 14.6534 27.8982 14.6274 27.8405 14.6126C27.7829 14.5978 27.7229 14.5945 27.664 14.6029C27.6051 14.6112 27.5484 14.6312 27.4972 14.6614C27.446 14.6917 27.4013 14.7318 27.3656 14.7794C27.3298 14.827 27.3038 14.8811 27.289 14.9388C27.2742 14.9964 27.2709 15.0564 27.2793 15.1153C27.2877 15.1742 27.3076 15.2309 27.3379 15.2821C27.3682 15.3333 27.4083 15.378 27.4559 15.4137C27.8492 15.7179 28.2094 16.0626 28.5304 16.4423C29.8881 18.4903 30.4958 21.6711 30.4958 23.92C30.4899 24.8862 29.5964 26.6168 27.8888 28.0548Z" fill="black"/>
<path d="M28.8557 16.1833C29.5532 13.8933 29.476 11.4719 29.3361 10.0591C29.3206 9.90041 29.2709 9.74694 29.1905 9.60924C29.11 9.47154 29.0008 9.35287 28.8702 9.26138C28.7396 9.16989 28.5907 9.10774 28.4338 9.07921C28.2769 9.05068 28.1157 9.05643 27.9613 9.09607C25.2306 9.79996 23.612 10.9838 22.699 11.9265C21.7607 11.7119 20.8009 11.6059 19.8383 11.6105C18.8758 11.6059 17.9159 11.7119 16.9776 11.9265C16.0647 10.9838 14.4461 9.79996 11.7154 9.09607C11.561 9.05643 11.3998 9.05068 11.2429 9.07921C11.086 9.10774 10.9371 9.16989 10.8065 9.26138C10.6759 9.35287 10.5666 9.47154 10.4862 9.60924C10.4058 9.74694 10.3561 9.90041 10.3406 10.0591C10.2006 11.4719 10.1234 13.8933 10.821 16.1833C9.43896 18.257 8.77661 21.4554 8.77661 23.9021C8.77661 26.0905 12.4265 31.1924 19.8383 31.1924C27.2501 31.1924 30.9001 26.0905 30.9001 23.9021C30.9001 21.4554 30.2377 18.257 28.8557 16.1833Z" fill="#F49819"/>
<path d="M25.6406 22.2359C23.3529 22.2359 22.365 24.4993 19.8384 24.4993C17.3118 24.4993 16.3239 22.2359 14.0362 22.2359C10.7181 22.2359 9.30988 25.0275 9.15186 25.3639C10.2549 27.802 13.7969 31.1928 19.8384 31.1928C25.8799 31.1928 29.4219 27.802 30.5249 25.3639C30.3669 25.0275 28.9587 22.2359 25.6406 22.2359Z" fill="#F7E3CD"/>
<path d="M19.7932 29.5096C14.7866 29.5096 11.2527 27.5126 9.16495 25.3369L9.15186 25.364C10.2549 27.8021 13.7969 31.1928 19.8384 31.1928C25.8799 31.1928 29.4219 27.8021 30.5249 25.364C30.5154 25.3432 30.5005 25.3129 30.4798 25.2737C28.4011 27.4747 24.8473 29.5096 19.7932 29.5096Z" fill="#F2C59E"/>
<path d="M13.9686 12.983C13.3979 12.3816 12.5157 11.4759 12.1752 11.2515C10.8207 10.3585 10.2519 11.5224 10.2519 11.5224C10.2225 12.825 10.32 14.4441 10.7715 16.0144C12.1938 14.603 14.6422 13.3505 14.6422 13.3505C14.3847 13.3017 14.1491 13.1731 13.9686 12.983Z" fill="#F7E3CD"/>
<path d="M25.7081 12.9832C26.2788 12.3818 27.161 11.4761 27.5014 11.2517C28.8559 10.3587 29.4248 11.5226 29.4248 11.5226C29.4541 12.8252 29.3566 14.4443 28.9051 16.0146C27.4829 14.6032 25.0344 13.3507 25.0344 13.3507C25.2919 13.3019 25.5276 13.1733 25.7081 12.9832Z" fill="#F7E3CD"/>
<path d="M17.6577 17.4491C17.6577 17.915 17.1913 18.2929 16.6166 18.2929C16.0418 18.2929 15.575 17.7344 15.575 17.2685C15.575 16.8025 16.0413 16.6052 16.6166 16.6052C17.1918 16.6052 17.6577 16.9831 17.6577 17.4491Z" fill="#F7E3CD"/>
<path d="M22.0886 17.4491C22.0886 17.915 22.555 18.2929 23.1302 18.2929C23.7054 18.2929 24.1727 17.7344 24.1727 17.2685C24.1727 16.8025 23.7063 16.6052 23.1316 16.6052C22.5568 16.6052 22.0886 16.9831 22.0886 17.4491Z" fill="#F7E3CD"/>
<path d="M15.4358 21.1171C16.0896 21.1171 16.6196 20.5871 16.6196 19.9332C16.6196 19.2794 16.0896 18.7494 15.4358 18.7494C14.782 18.7494 14.252 19.2794 14.252 19.9332C14.252 20.5871 14.782 21.1171 15.4358 21.1171Z" fill="black"/>
<path d="M24.3108 18.7494C24.0766 18.7494 23.8478 18.8188 23.6531 18.9489C23.4584 19.079 23.3067 19.2639 23.2171 19.4802C23.1275 19.6965 23.104 19.9346 23.1497 20.1642C23.1954 20.3938 23.3081 20.6048 23.4737 20.7703C23.6393 20.9359 23.8502 21.0486 24.0798 21.0943C24.3095 21.14 24.5475 21.1166 24.7638 21.027C24.9801 20.9374 25.165 20.7856 25.2951 20.5909C25.4252 20.3963 25.4946 20.1674 25.4946 19.9332C25.4944 19.6193 25.3696 19.3184 25.1476 19.0964C24.9257 18.8745 24.6247 18.7497 24.3108 18.7494Z" fill="black"/>
<path d="M19.8514 25.512C19.8514 25.512 18.918 26.8269 17.2466 26.4265V26.4889C17.2466 26.4889 17.6152 28.2537 19.8223 28.2537C22.0295 28.2537 22.3977 26.4889 22.3977 26.4889V26.4401C20.7629 26.7963 19.8514 25.512 19.8514 25.512Z" fill="#AA0C18"/>
<path d="M22.7715 25.9295C21.3602 26.4966 20.4767 25.6611 20.2298 25.379V25.3212C20.604 25.2418 20.9493 25.0615 21.2283 24.7998C21.595 24.4596 21.8139 24.029 21.8139 23.6433C21.8139 22.8638 20.9523 22.2532 19.8517 22.2532C18.7512 22.2532 17.8896 22.8638 17.8896 23.6433C17.8896 24.3284 18.5701 25.1378 19.4737 25.3212V25.3786C19.2253 25.663 18.3417 26.497 16.9319 25.9295C16.8857 25.91 16.8361 25.9 16.786 25.8999C16.7358 25.8998 16.6862 25.9097 16.6399 25.929C16.5936 25.9482 16.5516 25.9766 16.5164 26.0122C16.4811 26.0479 16.4533 26.0902 16.4346 26.1367C16.4159 26.1832 16.4066 26.233 16.4073 26.2831C16.408 26.3333 16.4186 26.3828 16.4386 26.4288C16.4586 26.4747 16.4876 26.5163 16.5238 26.551C16.56 26.5857 16.6027 26.6128 16.6495 26.6308C16.7422 26.6686 16.8329 26.7004 16.9217 26.7283C17.0299 27.0518 17.1978 27.3521 17.4166 27.6138C17.8041 28.078 18.5372 28.6319 19.8226 28.6319C21.108 28.6319 21.8407 28.078 22.2282 27.6138C22.4425 27.3576 22.608 27.0643 22.7163 26.7484C22.8262 26.7164 22.9387 26.6772 23.0539 26.6308C23.1454 26.5923 23.2181 26.5194 23.2562 26.4277C23.2944 26.3361 23.295 26.2332 23.258 26.1411C23.2209 26.049 23.1491 25.9752 23.0581 25.9357C22.9671 25.8961 22.8641 25.8938 22.7715 25.9295ZM19.8226 27.8758C18.6427 27.8758 18.0775 27.3087 17.8189 26.8796H17.8688C18.349 26.8796 18.8211 26.756 19.2396 26.5208C19.4615 26.3965 19.6672 26.2454 19.8521 26.0709C20.0371 26.2453 20.2428 26.3964 20.4646 26.5208C20.8803 26.7544 21.3488 26.8779 21.8256 26.8796C21.7675 26.9762 21.7013 27.0677 21.6279 27.1533C21.2135 27.633 20.6063 27.8758 19.8226 27.8758Z" fill="black"/>
</g>
<path d="M7.05664 20.01C7.05664 22.6568 9.61692 24.8066 12.7597 24.8066C15.5507 24.8066 17.9711 23.0678 18.3919 20.7482C18.5003 20.1507 19.0992 19.724 19.8089 19.724H19.8465C20.5563 19.724 21.1468 20.1508 21.2552 20.7482C21.676 23.0678 24.1498 24.8171 26.9408 24.8171C30.0836 24.8171 32.6888 22.6568 32.6888 20.01V16.0924H7.05664V20.01ZM12.5437 20.0325L14.4443 18.4318C14.5833 18.3147 14.8086 18.3147 14.9476 18.4318C15.0866 18.5488 15.0866 18.7385 14.9476 18.8555L13.0469 20.4563C12.9774 20.5148 12.8863 20.5441 12.7953 20.5441C12.7042 20.5441 12.6132 20.5148 12.5437 20.4563C12.4047 20.3393 12.4047 20.1495 12.5437 20.0325ZM9.8827 19.2321L11.7834 17.6314C11.9223 17.5144 12.1476 17.5144 12.2866 17.6314C12.4256 17.7484 12.4256 17.9382 12.2866 18.0552L10.3859 19.656C10.3165 19.7145 10.2254 19.7437 10.1344 19.7437C10.0433 19.7437 9.95223 19.7145 9.88276 19.6559C9.7437 19.5389 9.7437 19.3492 9.8827 19.2321Z" fill="black"/>
<rect x="12.2483" y="20.256" width="3.40444" height="0.788136" rx="0.394068" transform="rotate(-41.663 12.2483 20.256)" fill="white"/>
<rect x="9.47266" y="19.4097" width="3.45149" height="0.799029" rx="0.399514" transform="rotate(-40.0289 9.47266 19.4097)" fill="white"/>
<path d="M51.152 30H48.352V10.4H51.152V30ZM76.1162 30H55.8442V10.4H76.1162V13.2H58.6442V27.2H76.1162V30ZM73.7362 21.6H60.0442V18.8H73.7362V21.6ZM98.3106 30H79.5786V10.4H82.3786V27.2H98.3106V30ZM123.631 20.2C123.631 21.5627 123.416 22.8413 122.987 24.036C122.558 25.212 121.942 26.248 121.139 27.144C120.355 28.04 119.412 28.74 118.311 29.244C117.21 29.748 115.987 30 114.643 30H108.119C106.756 30 105.524 29.748 104.423 29.244C103.322 28.74 102.37 28.04 101.567 27.144C100.783 26.248 100.176 25.212 99.7471 24.036C99.3178 22.8413 99.1031 21.5627 99.1031 20.2C99.1031 18.856 99.3178 17.596 99.7471 16.42C100.176 15.2253 100.783 14.18 101.567 13.284C102.37 12.3693 103.322 11.66 104.423 11.156C105.524 10.652 106.756 10.4 108.119 10.4H114.643C115.987 10.4 117.21 10.652 118.311 11.156C119.412 11.66 120.355 12.3693 121.139 13.284C121.942 14.18 122.558 15.2253 122.987 16.42C123.416 17.596 123.631 18.856 123.631 20.2ZM120.831 20.2C120.831 18.912 120.579 17.736 120.075 16.672C119.59 15.608 118.88 14.768 117.947 14.152C117.032 13.5173 115.931 13.2 114.643 13.2H108.119C106.831 13.2 105.72 13.5173 104.787 14.152C103.872 14.768 103.163 15.608 102.659 16.672C102.155 17.736 101.903 18.912 101.903 20.2C101.903 21.488 102.155 22.664 102.659 23.728C103.163 24.7733 103.872 25.6133 104.787 26.248C105.72 26.8827 106.831 27.2 108.119 27.2H114.643C115.931 27.2 117.032 26.8827 117.947 26.248C118.88 25.6133 119.59 24.7733 120.075 23.728C120.579 22.664 120.831 21.488 120.831 20.2ZM130.011 30H127.211V10.4H128.611C129.974 10.4 131.449 10.6613 133.035 11.184C134.641 11.7067 136.246 12.444 137.851 13.396C139.457 14.348 140.969 15.4867 142.387 16.812C143.825 18.1187 145.057 19.5747 146.083 21.18V10.4H148.883V30H146.083C146.083 28.2827 145.729 26.64 145.019 25.072C144.329 23.4853 143.405 22.0293 142.247 20.704C141.09 19.36 139.802 18.1747 138.383 17.148C136.983 16.1027 135.555 15.2533 134.099 14.6C132.643 13.928 131.281 13.4987 130.011 13.312V30Z" fill="white"/>
<defs>
<linearGradient id="paint0_linear_46_316" x1="2.09139e-08" y1="20.0005" x2="39.1785" y2="21.1357" gradientUnits="userSpaceOnUse">
<stop offset="0.315" stop-color="#9747FF"/>
<stop offset="0.774736" stop-color="#4F99FF"/>
</linearGradient>
<clipPath id="clip0_46_316">
<rect width="23.1167" height="23.1167" fill="white" transform="translate(8.27979 8.57233)"/>
</clipPath>
</defs>
</svg>
