<svg width="82" height="83" viewBox="0 0 82 83" fill="none" xmlns="http://www.w3.org/2000/svg">
<path d="M15.2744 41.65C15.2744 55.7111 26.7133 67.15 40.7744 67.15C54.8355 67.15 66.2744 55.7111 66.2744 41.6501C64.879 7.83057 16.6752 7.82069 15.2744 41.65ZM17.8244 41.65C17.8244 28.9952 28.1203 18.7 40.7744 18.7C53.4285 18.7 63.7244 28.9952 63.7244 41.6498C62.4676 72.0873 19.0859 72.0961 17.8244 41.65Z" fill="#9747FF"/>
<path d="M44.8483 3.39997H36.7003C34.7586 3.33896 33.4574 5.68701 34.5375 7.30155L38.6128 13.821C39.081 14.5712 39.8891 15.0194 40.7743 15.0194C41.6596 15.0194 42.4677 14.5712 42.9358 13.821L47.0111 7.30092C48.0931 5.68624 46.7881 3.33974 44.8483 3.39997Z" fill="#9747FF"/>
<path d="M13.0717 39.3621C13.0717 39.3615 6.55104 35.2869 6.55104 35.2869C4.93705 34.2062 2.58923 35.5098 2.65009 37.4496C2.65009 37.4496 2.65009 45.5983 2.65009 45.5982C2.59126 47.5392 4.93472 48.8425 6.55229 47.761C6.55229 47.7611 13.073 43.6858 13.073 43.6858C14.6502 42.7657 14.6499 40.2818 13.0717 39.3621Z" fill="#9747FF"/>
<path d="M75.2478 35.5383L68.7271 39.6136C67.1494 40.5347 67.1506 43.0178 68.7284 43.9385L75.249 48.0125C75.6612 48.2702 76.1293 48.3997 76.6 48.3997C77.9659 48.4285 79.1783 47.2215 79.15 45.8497V37.7011C79.2115 35.7593 76.8611 34.4599 75.2478 35.5383Z" fill="#9747FF"/>
<path d="M72.6493 21.25C73.354 21.25 73.9243 20.6791 73.9243 19.975V13.6C73.9243 10.7879 71.637 8.5 68.8243 8.5H62.4493C61.7446 8.5 61.1743 9.07088 61.1743 9.775C61.1743 10.4791 61.7446 11.05 62.4493 11.05H68.8243C70.2301 11.05 71.3743 12.1936 71.3743 13.6V19.975C71.3743 20.6791 71.9446 21.25 72.6493 21.25Z" fill="#9747FF"/>
<path d="M12.9757 8.5C10.163 8.5 7.87573 10.7879 7.87573 13.6V19.975C7.90406 21.648 10.3968 21.6536 10.4257 19.9749V13.6C10.4257 12.1936 11.57 11.05 12.9757 11.05H19.3507C21.0221 11.0248 21.0298 8.52731 19.3507 8.5H12.9757Z" fill="#9747FF"/>
<path d="M43.1875 69.4784C42.2672 67.8993 39.7848 67.9006 38.8645 69.4784L34.7892 75.999C33.7075 77.6133 35.0118 79.9606 36.952 79.9H45.1013C47.0424 79.9611 48.3432 77.612 47.2628 75.9978L43.1875 69.4784Z" fill="#9747FF"/>
<path d="M71.3744 63.325V69.7C71.3744 71.1057 70.2301 72.25 68.8244 72.25H62.4494C60.7775 72.2751 60.7705 74.7729 62.4494 74.8H68.8244C71.6371 74.8 73.9244 72.5127 73.9244 69.7V63.325C73.8976 61.6458 71.399 61.6535 71.3744 63.325Z" fill="#9747FF"/>
<path d="M19.3507 72.25H12.9757C11.57 72.25 10.4257 71.1058 10.4257 69.7V63.325C10.4005 61.6531 7.90281 61.6462 7.87573 63.325V69.7C7.87573 72.5128 10.163 74.8 12.9757 74.8H19.3507C21.0298 74.7732 21.0223 72.2747 19.3507 72.25Z" fill="#9747FF"/>
<path d="M40.9001 60.775C30.354 60.775 21.7751 52.1961 21.7751 41.65C22.8253 16.278 58.9788 16.2854 60.0252 41.6501C60.0251 52.1961 51.4463 60.775 40.9001 60.775ZM40.9001 25.075C31.761 25.075 24.3251 32.5102 24.3251 41.65C25.2361 63.6389 56.5676 63.6325 57.4752 41.6499C57.4751 32.5102 50.0393 25.075 40.9001 25.075Z" fill="#9747FF"/>
<path d="M49.1368 45.3789L45.5306 41.7726L49.1368 38.1664C50.3816 36.9216 50.3816 34.9034 49.1368 33.6586C47.892 32.4138 45.8738 32.4138 44.629 33.6586L41.0228 37.2648L37.4165 33.6586C36.1717 32.4138 34.1535 32.4138 32.9087 33.6586C31.6639 34.9034 31.6639 36.9216 32.9087 38.1664L36.515 41.7726L32.9087 45.3789C31.6639 46.6237 31.6639 48.6419 32.9087 49.8867C34.1535 51.1315 36.1718 51.1315 37.4165 49.8867L41.0228 46.2804L44.629 49.8867C47.6767 52.7843 52.0341 48.4254 49.1368 45.3789Z" fill="#9747FF"/>
<path d="M40.9 27.625C40.1953 27.625 39.625 27.0541 39.625 26.35V21.25C39.625 20.5459 40.1953 19.975 40.9 19.975C41.6047 19.975 42.175 20.5459 42.175 21.25V26.35C42.175 27.0541 41.6047 27.625 40.9 27.625Z" fill="#9747FF"/>
<path d="M40.9 63.325C40.1953 63.325 39.625 62.7548 39.625 62.05V56.95C39.625 56.2453 40.1953 55.675 40.9 55.675C41.6047 55.675 42.175 56.2453 42.175 56.95V62.05C42.175 62.7548 41.6047 63.325 40.9 63.325Z" fill="#9747FF"/>
<path d="M61.3002 42.925H56.2002C54.5257 42.8973 54.5232 40.4031 56.2002 40.375H61.3002C62.9747 40.4027 62.9772 42.8969 61.3002 42.925Z" fill="#9747FF"/>
<path d="M25.6002 42.925H20.5002C18.8257 42.8973 18.8232 40.4031 20.5003 40.375H25.6002C27.2747 40.4027 27.2772 42.8969 25.6002 42.925Z" fill="#9747FF"/>
</svg>
