<svg width="83" height="83" viewBox="0 0 83 83" fill="none" xmlns="http://www.w3.org/2000/svg">
<g clip-path="url(#clip0_4_245)">
<path d="M79.3751 34.9936C79.2503 34.882 79.1047 34.796 78.9466 34.7406C78.7885 34.6853 78.6211 34.6616 78.4539 34.6709C78.1162 34.6898 77.7998 34.842 77.5744 35.0941C77.3489 35.3463 77.2328 35.6776 77.2517 36.0153C77.2705 36.3531 77.4228 36.6694 77.6749 36.8949C78.6372 37.7556 79.3156 38.8883 79.6201 40.1429C79.9247 41.3976 79.8411 42.7152 79.3804 43.9213C78.9197 45.1274 78.1036 46.1653 77.0402 46.8974C75.9768 47.6296 74.7161 48.0216 73.425 48.0216C72.1339 48.0216 70.8732 47.6296 69.8098 46.8974C68.7464 46.1653 67.9303 45.1274 67.4696 43.9213C67.0089 42.7152 66.9253 41.3976 67.2299 40.1429C67.5344 38.8883 68.2128 37.7556 69.1751 36.8949C69.4272 36.6694 69.5795 36.3531 69.5983 36.0153C69.6172 35.6776 69.5011 35.3463 69.2757 35.0941C69.0502 34.842 68.7338 34.6898 68.3961 34.6709C68.0584 34.6521 67.727 34.7681 67.4749 34.9936C66.1277 36.1986 65.1781 37.7843 64.7518 39.5409C64.3255 41.2974 64.4426 43.142 65.0875 44.8305C65.7325 46.5191 66.875 47.972 68.3638 48.997C69.8526 50.022 71.6175 50.5708 73.425 50.5708C75.2325 50.5708 76.9975 50.022 78.4862 48.997C79.975 47.972 81.1175 46.5191 81.7625 44.8305C82.4074 43.142 82.5245 41.2974 82.0982 39.5409C81.6719 37.7843 80.7223 36.1986 79.3751 34.9936Z" fill="#9747FF"/>
<path d="M50.0349 72.4094C50.0855 72.5691 50.1671 72.7173 50.275 72.8454C50.383 72.9735 50.5152 73.0791 50.6641 73.1559C50.813 73.2328 50.9755 73.2795 51.1425 73.2934C51.3095 73.3073 51.4775 73.288 51.6371 73.2367C56.4527 71.712 60.8543 69.1025 64.503 65.6093C68.1517 62.116 70.9501 57.8322 72.683 53.0874C71.8168 53.0348 70.9595 52.8837 70.1276 52.6368C68.4902 56.9198 65.9074 60.7781 62.5717 63.9243C59.236 67.0704 55.2334 69.4233 50.862 70.8075C50.7025 70.8584 50.5546 70.9402 50.4267 71.0482C50.2988 71.1562 50.1935 71.2884 50.1167 71.4371C50.0399 71.5859 49.9931 71.7483 49.9791 71.9151C49.9651 72.0819 49.984 72.2499 50.0349 72.4094Z" fill="#9747FF"/>
<path d="M72.6825 30.2565C70.3407 23.8817 66.1006 18.3781 60.5339 14.4879C54.9672 10.5977 48.3415 8.50778 41.5502 8.5C41.5078 8.50211 41.4656 8.50637 41.4237 8.51275C41.1559 8.48194 40.8852 8.53692 40.6507 8.66978C40.4162 8.80264 40.2299 9.00651 40.1186 9.25204L23.4935 46.227C23.4062 46.4212 23.369 46.6342 23.3851 46.8464C23.4013 47.0587 23.4703 47.2636 23.5859 47.4423C23.7016 47.6211 23.8601 47.768 24.0471 47.8698C24.2341 47.9716 24.4435 48.0249 24.6564 48.025H40.2752V72.2226C34.315 71.9656 28.5592 69.9751 23.7137 66.495C18.8681 63.015 15.1433 58.1967 12.9958 52.6308C12.1623 52.8798 11.3031 53.0327 10.4348 53.0865C12.7826 59.4508 17.0233 64.9434 22.5863 68.8253C28.1493 72.7072 34.7677 74.7922 41.5512 74.7999C41.7931 74.7956 42.0291 74.7244 42.2329 74.5942C42.4368 74.4641 42.6007 74.2799 42.7063 74.0623L59.6 37.7248C59.6903 37.5305 59.7301 37.3166 59.7159 37.1029C59.7017 36.8891 59.6338 36.6824 59.5186 36.5018C59.4034 36.3212 59.2446 36.1726 59.0567 36.0696C58.8689 35.9666 58.6581 35.9125 58.4439 35.9125H42.5089L42.5542 11.0702C48.7328 11.2813 54.7032 13.3558 59.6816 17.0213C64.66 20.6868 68.4136 25.772 70.4497 31.6093C71.0118 30.9099 71.8024 30.431 72.6825 30.2565Z" fill="#9747FF"/>
<path d="M73.4251 41.65C73.7633 41.65 74.0876 41.5156 74.3267 41.2765C74.5658 41.0374 74.7001 40.7131 74.7001 40.375V34C74.7001 33.6618 74.5658 33.3375 74.3267 33.0984C74.0876 32.8593 73.7633 32.725 73.4251 32.725C73.087 32.725 72.7627 32.8593 72.5236 33.0984C72.2845 33.3375 72.1501 33.6618 72.1501 34V40.375C72.1502 40.7131 72.2845 41.0374 72.5236 41.2765C72.7627 41.5156 73.087 41.65 73.4251 41.65Z" fill="#9747FF"/>
<path d="M18.6001 41.65C18.5996 40.3938 18.3345 39.1517 17.8219 38.0048C17.3093 36.8579 16.5608 35.8319 15.6252 34.9936C15.3731 34.7681 15.0417 34.6521 14.704 34.6709C14.3663 34.6898 14.0499 34.842 13.8245 35.0941C13.599 35.3463 13.4829 35.6776 13.5018 36.0153C13.5206 36.3531 13.6729 36.6694 13.925 36.8949C14.8874 37.7556 15.5657 38.8883 15.8702 40.1429C16.1748 41.3976 16.0912 42.7152 15.6305 43.9213C15.1698 45.1274 14.3538 46.1653 13.2903 46.8974C12.2269 47.6296 10.9662 48.0216 9.67511 48.0216C8.384 48.0216 7.12332 47.6296 6.05989 46.8974C4.99647 46.1653 4.18042 45.1274 3.71974 43.9213C3.25905 42.7152 3.17545 41.3976 3.47999 40.1429C3.78453 38.8883 4.46286 37.7556 5.42522 36.8949C5.67734 36.6694 5.82958 36.3531 5.84843 36.0153C5.86729 35.6776 5.75122 35.3463 5.52576 35.0941C5.30029 34.842 4.98391 34.6898 4.6462 34.6709C4.3085 34.6521 3.97713 34.7681 3.725 34.9936C2.61485 35.9859 1.77059 37.2402 1.26908 38.6423C0.767572 40.0443 0.624762 41.5495 0.853654 43.0208C1.08254 44.4921 1.67586 45.8828 2.57958 47.0662C3.4833 48.2496 4.66871 49.1882 6.02785 49.7964C7.38699 50.4046 8.87669 50.6631 10.3613 50.5484C11.8459 50.4338 13.2782 49.9495 14.5278 49.1398C15.7774 48.3301 16.8047 47.2206 17.5159 45.9125C18.2272 44.6043 18.5999 43.139 18.6001 41.65Z" fill="#9747FF"/>
<path d="M7.52738 30.8404C9.82192 23.6172 14.3558 17.3118 20.4725 12.8369C26.5892 8.36208 33.9714 5.95007 41.5503 5.95011C49.1291 5.95015 56.5113 8.36224 62.628 12.8372C68.7447 17.3121 73.2785 23.6176 75.5729 30.8408C76.1681 31.2462 76.6376 31.8104 76.9282 32.4693C77.3638 32.2688 77.8333 32.1521 78.3122 32.1253C78.408 32.1196 78.5033 32.1211 78.5985 32.1226C76.4837 23.9032 71.6955 16.6205 64.9878 11.4207C58.2801 6.22089 50.0337 3.39934 41.5466 3.40015C33.0594 3.40095 24.8135 6.22406 18.1068 11.4251C11.4001 16.6262 6.61332 23.9098 4.5 32.1296C5.07546 32.1176 5.64629 32.2347 6.17048 32.4725C6.46097 31.8121 6.93113 31.2466 7.52738 30.8404Z" fill="#9747FF"/>
<path d="M41.55 77.3499C34.0609 77.3399 26.764 74.9786 20.6889 70.5992C14.6138 66.2197 10.0672 60.0432 7.69059 52.9412C6.66536 52.7611 5.66974 52.4409 4.73169 51.9897C6.98487 60.0207 11.8022 67.0949 18.4493 72.1338C25.0965 77.1727 33.2089 79.9 41.5501 79.9C49.8912 79.8999 58.0037 77.1726 64.6508 72.1337C71.298 67.0948 76.1153 60.0207 78.3684 51.9896C77.4304 52.4408 76.4347 52.761 75.4095 52.9412C73.0329 60.0432 68.4863 66.2197 62.4112 70.5992C56.3361 74.9786 49.0391 77.34 41.55 77.3499Z" fill="#9747FF"/>
<path d="M12.6522 31.612C14.1606 27.27 16.6267 23.3231 19.8676 20.0636C23.1086 16.8042 27.0414 14.3157 31.3746 12.7825C31.6931 12.6697 31.9538 12.4351 32.0995 12.1302C32.2452 11.8253 32.2639 11.4751 32.1516 11.1564C32.0393 10.8377 31.8051 10.5767 31.5004 10.4305C31.1958 10.2844 30.8456 10.2651 30.5267 10.3769C25.919 12.0066 21.728 14.6335 18.2529 18.0702C14.7779 21.5069 12.1045 25.6685 10.4238 30.2578C11.3025 30.4336 12.0914 30.913 12.6522 31.612Z" fill="#9747FF"/>
<path d="M8.40015 34V40.375C8.40015 40.7131 8.53448 41.0374 8.77359 41.2765C9.01269 41.5156 9.337 41.65 9.67515 41.65C10.0133 41.65 10.3376 41.5156 10.5767 41.2765C10.8158 41.0374 10.9501 40.7131 10.9501 40.375V34C10.9501 33.6618 10.8158 33.3375 10.5767 33.0984C10.3376 32.8593 10.0133 32.725 9.67515 32.725C9.337 32.725 9.01269 32.8593 8.77359 33.0984C8.53448 33.3375 8.40015 33.6618 8.40015 34Z" fill="#9747FF"/>
</g>
<defs>
<clipPath id="clip0_4_245">
<rect width="81.6" height="81.6" fill="white" transform="translate(0.75 0.849976)"/>
</clipPath>
</defs>
</svg>
