<svg width="83" height="83" viewBox="0 0 83 83" fill="none" xmlns="http://www.w3.org/2000/svg">
<path fill-rule="evenodd" clip-rule="evenodd" d="M31.7074 38.6116L31.1237 38.6507C31.1237 38.6507 30.5766 38.6375 30.5189 39.2246C29.6961 47.5934 29.6961 47.5934 29.6961 47.5934C29.2878 51.7476 31.4125 55.7411 35.0857 57.7237L40.897 60.8602C41.0856 60.9623 41.313 60.9623 41.5019 60.8602L47.3129 57.7237C50.9861 55.7411 53.1108 51.7476 52.7024 47.5934L51.8797 39.224C51.8797 39.224 51.9399 38.6947 51.2755 38.6501L50.7065 38.6122C47.9547 38.426 45.3401 37.3347 43.2714 35.5077L41.6776 34.1003C41.4117 33.8659 41.0138 33.8662 40.7482 34.0997L39.1397 35.5169C37.071 37.3393 34.4583 38.4273 31.7074 38.6116Z" fill="#9747FF"/>
<path fill-rule="evenodd" clip-rule="evenodd" d="M55.5181 38.5387C55.3298 36.6219 53.7831 35.1222 51.861 34.993C51.5646 34.9731 51.2611 34.9526 50.9601 34.9325C49.0173 34.802 47.172 34.0321 45.7126 32.7433C45.1925 32.284 44.6417 31.7977 44.1191 31.3359C42.4602 29.8711 39.9707 29.8696 38.3099 31.3326C37.7824 31.7971 37.2265 32.287 36.7018 32.7491C35.2431 34.0342 33.4005 34.8017 31.4607 34.9315C31.1527 34.9523 30.8419 34.9731 30.5381 34.9933C28.616 35.1222 27.069 36.6219 26.8804 38.5391C26.6589 40.7927 26.334 44.0964 26.0259 47.2327C25.4722 52.8655 28.3529 58.2808 33.3339 60.9693C36.0444 62.4323 38.7314 63.8824 40.0526 64.5957C40.7683 64.982 41.6302 64.982 42.3459 64.5957C43.6671 63.8824 46.3541 62.4323 49.0646 60.9693C54.0456 58.2808 56.9264 52.8655 56.3729 47.2327L55.5181 38.5387ZM54.2507 38.6631L55.1055 47.357C55.6091 52.4795 52.9891 57.4039 48.4598 59.8486L41.7411 63.475C41.4028 63.6575 40.9957 63.6575 40.6574 63.475L33.9387 59.8486C29.4094 57.4039 26.7897 52.4795 27.293 47.357L28.1478 38.6637C28.2753 37.3661 29.3223 36.3511 30.623 36.264C30.9268 36.2436 31.2376 36.2228 31.546 36.202C33.7657 36.0535 35.8742 35.1754 37.5435 33.7048C38.0682 33.2424 38.6244 32.7528 39.1516 32.2879C40.3307 31.2495 42.0984 31.2504 43.2762 32.2904C43.7988 32.7522 44.3496 33.2384 44.8697 33.6978C46.5399 35.1727 48.6514 36.0535 50.8748 36.2029C51.1755 36.2231 51.479 36.2436 51.7758 36.2634C53.0765 36.3508 54.1232 37.3658 54.2507 38.6631Z" fill="#9747FF"/>
<path fill-rule="evenodd" clip-rule="evenodd" d="M45.0656 20.3561C50.2397 21.1984 54.8848 23.6369 58.4663 27.1613C63.0341 31.6563 65.9011 37.8867 65.9564 44.7952C66.012 51.7544 63.248 58.0853 58.7197 62.6866C54.1583 67.3216 47.8354 70.2284 40.8251 70.2846C33.7642 70.3412 27.3416 67.5347 22.673 62.9403C17.9704 58.3126 15.024 51.8968 14.9668 44.7848C14.9353 40.8509 15.7752 37.1116 17.3201 33.7581C18.927 30.2701 21.2772 27.1916 24.1775 24.7387C25.543 23.6024 25.7298 21.5654 24.5904 20.196C23.4508 18.8265 21.4138 18.6398 20.0443 19.7794C16.3714 22.7861 13.3718 26.5916 11.2921 30.9222C9.27529 35.1217 8.13869 39.8212 8.09896 44.7848C8.02653 53.843 11.6619 62.0681 17.556 68.0573C23.4829 74.0801 31.7162 77.8172 40.8251 77.8902C49.9854 77.9636 58.3019 74.2855 64.3587 68.3253C70.4487 62.3318 74.2255 54.0059 74.2995 44.7952C74.3737 35.5334 70.6529 27.1249 64.6267 21.001C59.4666 15.7578 52.596 12.212 44.9192 11.2282C45.359 9.84591 45.131 8.27687 44.1704 7.0489C42.6262 5.07552 39.7702 4.72681 37.7968 6.27079L30.5805 11.9165C29.4806 12.7771 28.8379 14.0958 28.8379 15.4925C28.8379 16.8892 29.4806 18.2079 30.5805 19.0685L37.7968 24.7142C39.7702 26.2582 42.6262 25.9095 44.1704 23.9358C44.9944 22.883 45.2795 21.5789 45.0662 20.3567L45.0656 20.3561Z" fill="#9747FF"/>
</svg>
